<svg width="18" height="18" viewBox="0 0 18 18" fill="none" xmlns="http://www.w3.org/2000/svg">
<path d="M1.7173 17.0103C1.52208 17.2056 1.20556 17.2056 1.01034 17.0103C0.815114 16.815 0.815114 16.4984 1.01034 16.3031L16.3218 0.98713C16.517 0.791829 16.8335 0.791829 17.0288 0.98713C17.224 1.18243 17.224 1.49908 17.0288 1.69438L1.7173 17.0103Z" fill="#838383"/>
<path d="M17.0312 16.3032C17.2264 16.4985 17.2264 16.8152 17.0312 17.0105C16.8359 17.2058 16.5194 17.2058 16.3242 17.0105L1.01272 1.69452C0.817501 1.49922 0.817501 1.18258 1.01272 0.987276C1.20795 0.791975 1.52447 0.791975 1.71969 0.987276L17.0312 16.3032Z" fill="#838383"/>
</svg>
