<svg width="16" height="16" viewBox="0 0 16 16" fill="none" xmlns="http://www.w3.org/2000/svg">
<path fill-rule="evenodd" clip-rule="evenodd" d="M4 0.5C4 0.223858 4.22386 0 4.5 0H11.5C11.7761 0 12 0.223858 12 0.5C12 0.776142 11.7761 1 11.5 1H4.5C4.22386 1 4 0.776142 4 0.5ZM0 2.5C0 2.22386 0.223858 2 0.5 2H15.5C15.7761 2 16 2.22386 16 2.5C16 2.77614 15.7761 3 15.5 3H14.4456L13.0989 14.6719C13.0115 15.4288 12.3707 16 11.6087 16H4.39125C3.62934 16 2.98847 15.4288 2.90114 14.6719L1.55437 3H0.5C0.223858 3 0 2.77614 0 2.5ZM2.56101 3L3.89455 14.5573C3.92366 14.8096 4.13728 15 4.39125 15H11.6087C11.8627 15 12.0763 14.8096 12.1055 14.5573L13.439 3H2.56101Z" fill="#565656"/>
</svg>
