<svg width="15" height="14" viewBox="0 0 15 14" fill="none" xmlns="http://www.w3.org/2000/svg">
<path fill-rule="evenodd" clip-rule="evenodd" d="M7 1.5C3.96243 1.5 1.5 3.96243 1.5 7C1.5 10.0376 3.96243 12.5 7 12.5C10.0376 12.5 12.5 10.0376 12.5 7C12.5 3.96243 10.0376 1.5 7 1.5ZM0.5 7C0.5 3.41015 3.41015 0.5 7 0.5C10.5899 0.5 13.5 3.41015 13.5 7C13.5 8.53418 12.9685 9.94422 12.0795 11.056L14.3186 12.9076C14.5314 13.0835 14.5613 13.3987 14.3853 13.6115C14.2093 13.8243 13.8942 13.8542 13.6814 13.6782L11.3958 11.7882C10.2386 12.8511 8.6951 13.5 7 13.5C3.41015 13.5 0.5 10.5899 0.5 7Z" fill="#9B9FA2"/>
</svg>
